<svg width="28" height="28" viewBox="0 0 28 28" fill="none" xmlns="http://www.w3.org/2000/svg">
<path d="M6.31363 8.52777C6.3261 9.65891 9.04987 9.58391 9.54541 11.4535C10.2108 13.9585 6.18888 15.9869 5.66422 20.6116C5.2761 24.046 8.76709 25.3162 13.5514 25.3162C18.3356 25.3162 22.3436 23.7896 24.4124 19.8466C26.4813 15.9037 20.6629 11.8332 20.2748 10.0523C19.7294 7.54868 21.6901 6.65346 21.0504 5.60005C19.229 2.59936 6.28521 6.05823 6.31363 8.52777Z" fill="#A93CAA"/>
<path d="M6.76553 8.40084C6.76553 8.40084 8.67286 6.43175 12.2609 5.4772C15.8489 4.52266 19.5339 5.06334 20.1161 5.44516C20.6983 5.82698 20.4717 6.78084 19.3399 7.19402C18.2081 7.6072 17.4651 7.89357 16.9141 8.68857C16.3632 9.48357 14.7164 10.2472 13.8757 9.76993C13.035 9.29266 12.098 9.10243 11.1929 9.83334C10.2877 10.5642 9.41514 10.0242 9.09217 9.48357C8.7692 8.94289 6.34553 9.3547 6.76553 8.40084Z" fill="#2A2856"/>
<path d="M24.4153 19.8486C26.4841 15.9057 20.6658 11.8352 20.2777 10.0543C19.8334 8.01569 21.0511 7.04342 21.1731 6.18433C21.1579 6.22455 21.1426 6.26478 21.1274 6.30637C20.1571 8.8816 16.761 11.1711 18.8 12.4114C20.8391 13.6516 23.1664 19.1846 17.2483 22.7143C14.5155 24.3452 11.7619 24.8552 9.58984 24.933C10.7396 25.1982 12.0849 25.3182 13.5542 25.3182C18.3385 25.3182 22.3465 23.7916 24.4153 19.8486Z" fill="#2A2856"/>
<path d="M16.8725 17.3483C16.8079 17.3482 16.7446 17.3304 16.6897 17.2968C16.6348 17.2632 16.5906 17.2151 16.562 17.1581C16.3135 16.6198 16.1699 16.0405 16.1386 15.4501C16.0762 14.1649 16.6237 13.1101 17.716 12.3983C19.4563 11.2672 20.0974 10.2997 20.1175 9.81489C20.1244 9.65807 20.0655 9.59398 20.0205 9.55921C19.9543 9.50175 19.9128 9.4216 19.9047 9.33511C19.8965 9.24863 19.9222 9.16234 19.9765 9.09386C20.0308 9.02538 20.1096 8.97987 20.1969 8.96663C20.2841 8.95339 20.3732 8.97342 20.446 9.02262C20.569 9.12011 20.666 9.24548 20.7289 9.38798C20.7918 9.53048 20.8186 9.68586 20.8071 9.8408C20.7704 10.7272 19.782 11.8692 18.0951 12.9656C17.2101 13.541 16.7831 14.3578 16.8275 15.3942C16.8535 15.8986 16.9733 16.3941 17.181 16.856C17.2071 16.9078 17.2193 16.9653 17.2166 17.0231C17.2139 17.0809 17.1963 17.137 17.1655 17.1863C17.1346 17.2355 17.0915 17.2762 17.0403 17.3046C16.9891 17.3329 16.9313 17.3479 16.8725 17.3483Z" fill="#FFB93E"/>
<path d="M16.8183 18.9582C16.8183 18.9582 15.9458 16.8595 16.7864 16.4777C17.6271 16.0959 18.1116 17.75 18.7901 17.9095C18.7901 17.9088 18.3382 19.117 16.8183 18.9582Z" fill="#FFC952"/>
<path d="M13.4381 12.3261C11.9895 12.3261 11.0047 12.0602 10.9617 12.0486C10.9278 12.0377 10.8995 12.0143 10.8826 11.9834C10.8658 11.9525 10.8617 11.9163 10.8713 11.8825C10.8808 11.8487 10.9033 11.8198 10.9339 11.8018C10.9646 11.7839 11.0011 11.7782 11.0359 11.7861C11.0795 11.7977 15.4154 12.9452 19.1288 10.3434C19.1437 10.333 19.1605 10.3256 19.1782 10.3216C19.1959 10.3176 19.2143 10.317 19.2323 10.32C19.2502 10.323 19.2674 10.3294 19.2828 10.3389C19.2983 10.3484 19.3117 10.3608 19.3222 10.3754C19.3328 10.39 19.3403 10.4065 19.3444 10.424C19.3485 10.4414 19.349 10.4595 19.346 10.4772C19.3429 10.4948 19.3364 10.5118 19.3268 10.5269C19.3171 10.5421 19.3045 10.5553 19.2896 10.5657C17.5771 11.765 15.5249 12.3261 13.4381 12.3261Z" fill="#141452"/>
<path d="M7.36403 23.3743C7.36403 23.3743 6.05829 22.0549 6.41106 20.1799C6.76383 18.3049 8.49027 16.3263 9.48136 14.7643C10.4724 13.2022 10.2576 12.5422 10.5397 12.577C10.8218 12.6118 10.1516 15.5279 8.77512 17.542C7.39869 19.5561 8.03423 22.2281 8.73977 22.7143C9.44532 23.2004 8.77512 23.9988 7.36403 23.3743Z" fill="#942C95"/>
<path d="M9.78163 10.4253C9.79944 10.4433 9.81817 10.4604 9.83777 10.4764C10.0228 10.6305 10.6625 11.0553 11.7049 10.6503C12.9573 10.1648 13.1513 11.1542 14.1043 11.1364C15.0573 11.1187 13.7869 11.7787 12.8339 11.4317C11.8809 11.0846 10.6986 11.866 10.2578 11.6055C9.81698 11.3451 9.43094 10.413 9.80035 10.4464" fill="#942C95"/>
<path d="M10.8819 18.2388C10.8259 18.2388 10.7709 18.2254 10.7213 18.1999C10.6718 18.1743 10.6292 18.1374 10.5974 18.0922C10.5655 18.0469 10.5452 17.9948 10.5383 17.9402C10.5313 17.8856 10.538 17.8302 10.5575 17.7786C10.8639 16.9761 10.4806 15.0704 9.18387 13.9107C8.24545 13.0713 8.83179 11.797 9.27327 11.2434C9.33078 11.175 9.4131 11.1315 9.50275 11.1219C9.5924 11.1123 9.68231 11.1375 9.7534 11.192C9.82449 11.2466 9.87115 11.3263 9.88348 11.4142C9.8958 11.5021 9.87282 11.5912 9.81941 11.6627C9.78406 11.7084 8.95238 12.7822 9.64961 13.4061C10.1867 13.8834 10.6996 14.6552 11.0219 15.4631C11.2915 16.1409 11.5431 17.135 11.2062 18.0179C11.1814 18.0828 11.1371 18.1387 11.0791 18.1782C11.0212 18.2177 10.9524 18.2388 10.8819 18.2388Z" fill="#FFB93E"/>
<path d="M8.99609 20.2305C8.99609 20.2305 9.83609 19.6898 9.99758 18.513C10.1591 17.3362 11.3553 17.4003 11.679 18.0678C12.0026 18.7353 11.5494 20.6437 11.5494 20.6437C11.5494 20.6437 10.4502 21.2157 8.99609 20.2305Z" fill="#FFC952"/>
<path d="M11.6107 7.86636C12.8945 7.86636 13.9352 6.84252 13.9352 5.57954C13.9352 4.31657 12.8945 3.29272 11.6107 3.29272C10.3269 3.29272 9.28613 4.31657 9.28613 5.57954C9.28613 6.84252 10.3269 7.86636 11.6107 7.86636Z" fill="#FFAC27"/>
<path d="M11.2826 7.9147C12.5664 7.9147 13.6071 6.89086 13.6071 5.62788C13.6071 4.36491 12.5664 3.34106 11.2826 3.34106C9.99875 3.34106 8.95801 4.36491 8.95801 5.62788C8.95801 6.89086 9.99875 7.9147 11.2826 7.9147Z" fill="#FFB93E"/>
<path d="M11.2826 3.34107C10.7295 3.34061 10.1943 3.53418 9.77327 3.88702C9.35221 4.23985 9.07284 4.72883 8.98533 5.26611C8.89783 5.80338 9.00793 6.35375 9.29587 6.81833C9.5838 7.28292 10.0307 7.63128 10.5563 7.80084L12.4913 3.6738C12.1273 3.45537 11.709 3.34021 11.2826 3.34107Z" fill="#FFC952"/>
<path d="M11.2819 7.52887C10.8997 7.52887 10.5261 7.41738 10.2084 7.20851C9.89061 6.99963 9.64295 6.70275 9.4967 6.35541C9.35045 6.00806 9.31218 5.62585 9.38674 5.25711C9.4613 4.88837 9.64533 4.54966 9.91556 4.28382C10.1858 4.01797 10.5301 3.83692 10.9049 3.76358C11.2797 3.69023 11.6683 3.72787 12.0213 3.87175C12.3744 4.01563 12.6762 4.25927 12.8885 4.57187C13.1008 4.88448 13.2142 5.252 13.2142 5.62796C13.2136 6.13195 13.0099 6.61514 12.6476 6.97151C12.2854 7.32788 11.7942 7.52833 11.2819 7.52887ZM11.2819 3.86342C10.9271 3.86342 10.5803 3.9669 10.2854 4.16079C9.99042 4.35468 9.76052 4.63027 9.62476 4.9527C9.489 5.27513 9.45348 5.62992 9.52269 5.97221C9.5919 6.31449 9.76273 6.62891 10.0136 6.87568C10.2644 7.12246 10.584 7.29052 10.932 7.3586C11.2799 7.42669 11.6405 7.39174 11.9683 7.25819C12.296 7.12463 12.5762 6.89847 12.7733 6.60829C12.9704 6.31811 13.0756 5.97696 13.0756 5.62796C13.075 5.16014 12.8858 4.71164 12.5496 4.38084C12.2133 4.05004 11.7574 3.86396 11.2819 3.86342Z" fill="white"/>
<g clip-path="url(#clip0_1082_166)">
<path d="M11.0897 5.85234C11.0457 5.86253 11.0017 5.87254 10.9579 5.88291C10.94 5.88715 10.9223 5.89218 10.8997 5.89814C10.9071 5.81756 10.9137 5.7421 10.9208 5.66672C10.9408 5.45235 10.9614 5.23803 10.9805 5.02366C10.9824 5.00133 10.9908 4.99261 11.0138 4.98684C11.1124 4.96206 11.2105 4.93601 11.3084 4.90926C11.3291 4.90363 11.3409 4.90459 11.3539 4.9228C11.526 5.16487 11.6993 5.40616 11.8723 5.64761C11.9841 5.80364 12.096 5.95955 12.2079 6.11555C12.2191 6.13126 12.23 6.14704 12.2442 6.16752C12.1813 6.18411 12.1223 6.20057 12.0628 6.21412C12.0553 6.21584 12.0413 6.20383 12.0351 6.19516C11.953 6.08189 11.8712 5.9684 11.791 5.85389C11.7775 5.83452 11.7657 5.8303 11.7411 5.83687C11.5332 5.89268 11.325 5.94711 11.1168 6.002C11.103 6.00563 11.0893 6.00923 11.0695 6.01446C11.0761 5.95738 11.0822 5.90453 11.0884 5.85166C11.1006 5.84723 11.1126 5.84174 11.1252 5.83844C11.2925 5.79414 11.46 5.75008 11.6274 5.70595C11.6417 5.70217 11.6561 5.6984 11.6742 5.69362C11.6644 5.67847 11.6582 5.66821 11.6512 5.65846C11.5267 5.48424 11.4023 5.30991 11.2776 5.13583C11.2437 5.08843 11.2435 5.08969 11.1826 5.1049C11.1607 5.11039 11.1527 5.11927 11.151 5.14024C11.1395 5.27865 11.1257 5.417 11.1135 5.55547C11.1047 5.65442 11.0975 5.75335 11.0897 5.85234Z" fill="white"/>
<path d="M10.8837 6.06306C10.8196 6.07996 10.7613 6.09532 10.6982 6.11197C10.7034 6.05832 10.7077 6.00901 10.7136 5.95973C10.7143 5.95379 10.7227 5.94516 10.7292 5.94337C10.7831 5.92812 10.8376 5.91424 10.8987 5.89812C10.8939 5.95425 10.8897 6.00587 10.8849 6.06191C10.9465 6.04567 11.0045 6.03037 11.0692 6.01333C11.0662 6.05229 11.0639 6.08612 11.0607 6.11982C11.0502 6.23408 11.0388 6.34832 11.0292 6.46264C11.0275 6.48201 11.0209 6.49128 10.9999 6.49625C10.9485 6.50841 10.8976 6.52277 10.8398 6.53798C10.8545 6.37917 10.8687 6.22446 10.8837 6.06306Z" fill="white"/>
</g>
<path d="M17.2619 6.0825C17.8337 6.0825 18.2973 5.62649 18.2973 5.06396C18.2973 4.50143 17.8337 4.04541 17.2619 4.04541C16.6901 4.04541 16.2266 4.50143 16.2266 5.06396C16.2266 5.62649 16.6901 6.0825 17.2619 6.0825Z" fill="#FFAC27"/>
<path d="M17.1154 6.10399C17.6872 6.10399 18.1508 5.64797 18.1508 5.08544C18.1508 4.52291 17.6872 4.06689 17.1154 4.06689C16.5436 4.06689 16.0801 4.52291 16.0801 5.08544C16.0801 5.64797 16.5436 6.10399 17.1154 6.10399Z" fill="#FFB93E"/>
<path d="M17.1153 4.0669C16.869 4.06669 16.6306 4.15291 16.4431 4.31006C16.2555 4.46722 16.1311 4.685 16.0921 4.92431C16.0532 5.16361 16.1022 5.40874 16.2305 5.61567C16.3587 5.8226 16.5577 5.97776 16.7918 6.05328L17.6537 4.21509C17.4916 4.1178 17.3052 4.06652 17.1153 4.0669Z" fill="#FFC952"/>
<path d="M17.1155 5.9321C16.9453 5.9321 16.7789 5.88244 16.6374 5.78941C16.4958 5.69638 16.3855 5.56415 16.3204 5.40944C16.2553 5.25473 16.2382 5.08449 16.2714 4.92026C16.3046 4.75602 16.3866 4.60516 16.507 4.48675C16.6273 4.36834 16.7807 4.28771 16.9476 4.25504C17.1146 4.22237 17.2876 4.23914 17.4449 4.30322C17.6021 4.3673 17.7365 4.47582 17.8311 4.61505C17.9257 4.75429 17.9762 4.91798 17.9762 5.08543C17.9759 5.30991 17.8852 5.52512 17.7238 5.68385C17.5625 5.84258 17.3437 5.93186 17.1155 5.9321ZM17.1155 4.29951C16.9575 4.29951 16.8031 4.3456 16.6717 4.43196C16.5403 4.51832 16.4379 4.64106 16.3774 4.78467C16.317 4.92828 16.3011 5.08631 16.332 5.23876C16.3628 5.39122 16.4389 5.53125 16.5506 5.64117C16.6623 5.75108 16.8047 5.82593 16.9597 5.85626C17.1146 5.88658 17.2753 5.87102 17.4212 5.81154C17.5672 5.75205 17.692 5.65132 17.7798 5.52207C17.8676 5.39283 17.9144 5.24088 17.9144 5.08543C17.9142 4.87707 17.8299 4.6773 17.6802 4.52997C17.5304 4.38263 17.3273 4.29975 17.1155 4.29951Z" fill="white"/>
<g clip-path="url(#clip1_1082_166)">
<path d="M17.0281 5.18566C17.0085 5.1902 16.9889 5.19466 16.9694 5.19927C16.9614 5.20116 16.9536 5.2034 16.9435 5.20606C16.9468 5.17017 16.9497 5.13656 16.9529 5.10298C16.9618 5.0075 16.971 4.91205 16.9795 4.81656C16.9803 4.80662 16.9841 4.80273 16.9943 4.80016C17.0382 4.78913 17.0819 4.77752 17.1255 4.76561C17.1347 4.7631 17.14 4.76353 17.1458 4.77164C17.2224 4.87946 17.2996 4.98693 17.3767 5.09447C17.4265 5.16396 17.4763 5.23341 17.5261 5.30289C17.5311 5.30989 17.536 5.31692 17.5423 5.32604C17.5143 5.33343 17.488 5.34076 17.4615 5.34679C17.4582 5.34756 17.452 5.34221 17.4492 5.33835C17.4126 5.2879 17.3762 5.23735 17.3405 5.18635C17.3345 5.17772 17.3292 5.17584 17.3182 5.17877C17.2257 5.20363 17.1329 5.22787 17.0402 5.25231C17.034 5.25393 17.028 5.25554 17.0191 5.25787C17.0221 5.23244 17.0248 5.2089 17.0275 5.18536C17.033 5.18338 17.0383 5.18094 17.0439 5.17946C17.1184 5.15973 17.193 5.14011 17.2676 5.12046C17.274 5.11877 17.2804 5.11709 17.2884 5.11496C17.2841 5.10822 17.2813 5.10365 17.2782 5.0993C17.2227 5.02171 17.1673 4.94406 17.1118 4.86652C17.0967 4.84541 17.0966 4.84597 17.0695 4.85275C17.0597 4.8552 17.0562 4.85915 17.0554 4.86849C17.0503 4.93013 17.0441 4.99176 17.0387 5.05343C17.0348 5.09751 17.0316 5.14157 17.0281 5.18566Z" fill="white"/>
<path d="M16.9368 5.27929C16.9083 5.28682 16.8823 5.29366 16.8542 5.30107C16.8565 5.27718 16.8584 5.25522 16.861 5.23327C16.8614 5.23062 16.8651 5.22678 16.868 5.22598C16.892 5.21919 16.9163 5.21301 16.9435 5.20583C16.9414 5.23082 16.9395 5.25382 16.9373 5.27878C16.9648 5.27154 16.9906 5.26473 17.0194 5.25714C17.0181 5.27449 17.0171 5.28956 17.0157 5.30457C17.011 5.35546 17.0059 5.40634 17.0016 5.45726C17.0009 5.46589 16.9979 5.47002 16.9886 5.47223C16.9657 5.47765 16.943 5.48404 16.9173 5.49082C16.9238 5.42009 16.9301 5.35118 16.9368 5.27929Z" fill="white"/>
</g>
<defs>
<clipPath id="clip0_1082_166">
<rect width="2.21543" height="2.18425" fill="white" transform="matrix(0.966969 -0.254892 0.262797 0.964851 9.98047 4.88281)"/>
</clipPath>
<clipPath id="clip1_1082_166">
<rect width="0.98675" height="0.972863" fill="white" transform="matrix(0.966969 -0.254892 0.262797 0.964851 16.5352 4.75366)"/>
</clipPath>
</defs>
</svg>
