<svg width="224" height="169" viewBox="0 0 224 169" fill="none" xmlns="http://www.w3.org/2000/svg">
<path opacity="0.6" fill-rule="evenodd" clip-rule="evenodd" d="M176.97 76.0775C202.594 76.0775 223.441 96.8653 223.441 122.417C223.441 144.779 207 164.181 185 168.045V168.041C203.202 164.141 216.895 141.147 216.895 122.417C216.895 100.473 198.985 82.6207 176.97 82.6207H119.446C117.638 82.6207 116.173 81.1563 116.173 79.3491C116.173 77.5418 117.638 76.0775 119.446 76.0775H148.604L162.829 27.7457L147.256 32.3613C149.031 38.8456 145.853 44.5133 141.076 47.1935C135.447 50.3508 127.437 49.4622 123.018 41.654L118.716 34.0865C117.987 32.8049 118.206 31.1948 119.25 30.1536L124.239 25.1803L111.715 8.70878L99.1903 25.1803L104.179 30.1536C105.222 31.1939 105.441 32.8018 104.715 34.083L100.423 41.6553C95.9928 49.4679 87.9755 50.3517 82.3472 47.1882C77.5759 44.5072 74.4059 38.8404 76.1829 32.3608L60.6001 27.7448L64.2711 40.2171C64.7813 41.9506 63.7889 43.7692 62.0546 44.2791C60.3216 44.7899 58.5014 43.7975 57.9908 42.064L52.6221 23.8232C52.2834 22.6733 52.6012 21.4301 53.45 20.5839C54.2988 19.7372 55.5439 19.4235 56.692 19.7629L81.5075 27.114C82.4606 27.3958 83.2335 28.0959 83.6084 29.0159C83.9833 29.9359 83.92 30.9763 83.4356 31.8439C80.9559 36.2876 82.7133 39.8882 85.5548 41.4847C88.3635 43.0638 92.2886 42.7301 94.7272 38.4295L97.7904 33.0261L92.5421 27.7936C91.3821 26.6368 91.2564 24.8008 92.2475 23.4974L109.109 1.32234C109.727 0.508366 110.691 0.0302734 111.714 0.0302734C112.737 0.0302734 113.701 0.508366 114.32 1.32234L131.181 23.4965C132.173 24.8003 132.047 26.6364 130.887 27.7928L125.641 33.023L128.712 38.4255C131.147 42.727 135.066 43.059 137.872 41.4869C140.719 39.8899 142.482 36.2885 140.004 31.8413C139.521 30.9737 139.458 29.9337 139.833 29.0146C140.208 28.0951 140.98 27.3954 141.933 27.1136L166.736 19.7629C167.887 19.4227 169.131 19.7376 169.979 20.5839C170.827 21.4306 171.145 22.6729 170.807 23.8228L155.428 76.0775H176.97ZM38 167.942C20.0148 163.775 6.54612 140.999 6.54612 122.417C6.54612 100.473 24.4511 82.6207 46.4591 82.6207H103.785C105.592 82.6207 107.058 81.1563 107.058 79.3491C107.058 77.5418 105.592 76.0775 103.785 76.0775H74.8244L68.7487 55.4366C68.239 53.7035 66.4191 52.7116 64.6849 53.2215C62.9506 53.7315 61.9582 55.5505 62.4688 57.2836L68.0007 76.0775H46.4591C20.8415 76.077 0 96.8649 0 122.417C0 144.631 16.2218 163.922 38 167.965V167.942Z" fill="#F545F7"/>
</svg>
