<svg width="134" height="118" viewBox="0 0 134 118" fill="none" xmlns="http://www.w3.org/2000/svg">
<path d="M20.3743 10.5197L22.9249 13.2773C23.1183 13.4863 23.402 13.5868 23.6836 13.546L27.4011 13.0081C28.1105 12.9055 28.6297 13.6608 28.2796 14.2865L26.4453 17.564C26.3064 17.8125 26.2985 18.1132 26.4244 18.3686L28.0847 21.738C28.4015 22.381 27.8436 23.1082 27.1404 22.9687L23.4561 22.2372C23.177 22.1817 22.8883 22.2672 22.6843 22.4658L19.9929 25.086C19.4792 25.5862 18.6152 25.2801 18.5308 24.5684L18.0881 20.8383C18.0544 20.5557 17.8841 20.3075 17.6322 20.175L14.3086 18.425C13.6744 18.0911 13.6983 17.1747 14.3492 16.8744L17.7599 15.3008C18.0182 15.1817 18.2017 14.9427 18.2499 14.6622L18.8871 10.9604C19.0086 10.2538 19.8876 9.99357 20.3743 10.5197Z" fill="#ECD96F"/>
<path d="M113.626 10.5197L111.076 13.2773C110.882 13.4863 110.599 13.5868 110.317 13.546L106.599 13.0081C105.89 12.9055 105.371 13.6608 105.721 14.2865L107.555 17.5644C107.694 17.8129 107.702 18.1137 107.576 18.369L105.916 21.7385C105.599 22.3815 106.157 23.1086 106.86 22.9692L110.544 22.2377C110.824 22.1821 111.112 22.2676 111.316 22.4663L114.008 25.0865C114.521 25.5866 115.385 25.2805 115.47 24.5689L115.913 20.8387C115.946 20.5562 116.116 20.3079 116.368 20.1754L119.692 18.4255C120.326 18.0915 120.302 17.1752 119.651 16.8749L116.241 15.3012C115.982 15.1821 115.799 14.9431 115.751 14.6626L115.113 10.9608C114.992 10.2537 114.113 9.99355 113.626 10.5197Z" fill="#ECD96F"/>
<path d="M108.601 62.8682C109.522 62.8682 110.301 62.1606 110.374 61.2275C110.45 60.2468 109.719 59.3899 108.738 59.3116C107.758 59.2355 106.901 59.9693 106.825 60.9474C106.743 61.9737 107.576 62.8682 108.601 62.8682Z" fill="#FFE07D"/>
<path d="M25.9261 62.953C26.8473 62.953 27.626 62.2455 27.6996 61.3123C27.7756 60.3316 27.0443 59.4748 26.0637 59.3964C25.0831 59.3204 24.2259 60.0542 24.1501 61.0323C24.0681 62.0586 24.9014 62.953 25.9261 62.953Z" fill="#FFE07D"/>
<path d="M38.9393 27.7692C39.3714 27.7692 39.8035 27.6125 40.1453 27.2968C40.8694 26.6296 40.9146 25.5042 40.2474 24.78C39.5802 24.0584 38.4525 24.0133 37.7307 24.6802C37.0088 25.3472 36.9614 26.4728 37.6286 27.197C37.98 27.5768 38.4596 27.7692 38.9393 27.7692Z" fill="#FFE07D"/>
<path d="M59.4953 17.4057C60.5921 17.4057 61.4541 16.3804 61.2453 15.2903C61.0602 14.3239 60.1294 13.6899 59.163 13.8752C58.1967 14.0603 57.5629 14.9934 57.7479 15.9598C57.9116 16.8121 58.6571 17.4057 59.4953 17.4057Z" fill="#FFE07D"/>
<path d="M52.0403 19.5638C53.2666 19.5638 54.1493 18.2874 53.6976 17.1325C53.3392 16.2162 52.3039 15.7649 51.3899 16.1259C50.4733 16.4842 50.0223 17.5172 50.3832 18.4335C50.6586 19.1339 51.3304 19.5638 52.0403 19.5638Z" fill="#FFE07D"/>
<path d="M45.1076 23.0538C45.4304 23.0538 45.7556 22.9659 46.0502 22.7832C46.8836 22.2607 47.1375 21.1616 46.6153 20.3282C46.093 19.4949 44.9937 19.2409 44.1603 19.7631C43.327 20.2856 43.0753 21.3847 43.5952 22.2181C43.9347 22.7569 44.5141 23.0538 45.1076 23.0538Z" fill="#FFE07D"/>
<path d="M67.2231 16.6696C68.2084 16.6696 69.006 15.8717 69.006 14.889C69.006 13.9037 68.2084 13.1084 67.2254 13.1084C67.2254 13.1058 67.2254 13.1058 67.2254 13.1058C66.2402 13.1058 65.4448 13.9037 65.4448 14.889C65.4448 15.8717 66.2402 16.6696 67.2231 16.6696Z" fill="#FFE07D"/>
<path d="M74.6216 17.3651C75.5705 17.5435 76.5228 16.9067 76.7039 15.9477C76.8867 14.9813 76.2506 14.0484 75.2865 13.8654C74.3202 13.6826 73.3872 14.319 73.2042 15.2828C73.0215 16.2494 73.6555 17.1823 74.6216 17.3651Z" fill="#FFE07D"/>
<path d="M107.882 47.3945C108.832 47.1357 109.392 46.1576 109.134 45.2078V45.2104C108.877 44.2606 107.899 43.7003 106.949 43.9566C105.999 44.2154 105.439 45.1935 105.698 46.1433C105.937 47.0179 107.012 47.6321 107.882 47.3945Z" fill="#FFE07D"/>
<path d="M81.7659 19.4165C82.6205 19.7491 83.736 19.27 84.0736 18.4052C84.4322 17.4912 83.9786 16.4582 83.0623 16.0999C82.146 15.7413 81.113 16.1948 80.7569 17.1112C80.3983 18.0275 80.8496 19.0605 81.7659 19.4165Z" fill="#FFE07D"/>
<path d="M88.4043 22.7569C89.2038 23.26 90.3592 22.9885 90.8593 22.1943C91.3818 21.3609 91.1301 20.2639 90.2965 19.7394C89.4631 19.2171 88.364 19.4688 87.8415 20.3022C87.3193 21.1355 87.571 22.2346 88.4043 22.7569Z" fill="#FFE07D"/>
<path d="M94.2969 27.2801C95.013 27.9415 96.1757 27.8728 96.8136 27.1874C97.4832 26.4656 97.4405 25.3379 96.721 24.6707C95.9992 24.0012 94.8738 24.0415 94.2045 24.7634C93.5348 25.4827 93.5774 26.6106 94.2969 27.2801Z" fill="#FFE07D"/>
<path d="M104.696 40.1889C104.957 40.1889 105.221 40.1319 105.47 40.0107C106.356 39.5809 106.726 38.5173 106.299 37.6318C105.869 36.7461 104.803 36.3758 103.92 36.8056C103.034 37.2329 102.664 38.299 103.094 39.1845C103.4 39.8185 104.036 40.1889 104.696 40.1889Z" fill="#FFE07D"/>
<path d="M32.6926 33.1944C33.4619 33.7646 34.6253 33.5752 35.1856 32.8215C35.7696 32.0333 35.6035 30.9174 34.8127 30.3334C34.022 29.7471 32.9063 29.9133 32.3223 30.7038C31.7357 31.4943 31.9042 32.6102 32.6926 33.1944Z" fill="#FFE07D"/>
<path d="M110.518 53.1832C110.442 52.2026 109.584 51.469 108.604 51.5448C107.623 51.6232 106.89 52.478 106.966 53.4584C107.044 54.452 107.911 55.144 108.882 55.0968C109.862 55.0184 110.593 54.1636 110.518 53.1832Z" fill="#FFE07D"/>
<path d="M99.2499 32.8216C99.8086 33.578 100.969 33.7653 101.738 33.1968C102.531 32.6128 102.697 31.4968 102.113 30.7063C101.529 29.9156 100.413 29.7471 99.6226 30.3311C98.8318 30.9151 98.6634 32.0311 99.2474 32.8216H99.2499Z" fill="#FFE07D"/>
<path d="M28.7699 46.1575C29.0264 45.2078 28.4636 44.2297 27.5139 43.9734C26.5641 43.7169 25.5883 44.2797 25.332 45.2294C25.0755 46.1792 25.6383 47.1573 26.5881 47.4113C27.4581 47.6517 28.5342 47.0331 28.7699 46.1575Z" fill="#FFE07D"/>
<path d="M28.1434 37.6413C27.7184 38.5293 28.0911 39.5929 28.9768 40.0179C29.8118 40.4155 30.9482 40.0267 31.3534 39.1845C31.7784 38.2965 31.4057 37.2329 30.52 36.808C29.6322 36.383 28.5684 36.7556 28.1434 37.6413Z" fill="#FFE07D"/>
<path d="M25.7288 55.1228C26.65 55.1228 27.4288 54.4153 27.5023 53.4821C27.5784 52.5015 26.8471 51.6446 25.8664 51.5662C24.8858 51.4902 24.0287 52.224 23.9528 53.2021C23.8708 54.2284 24.7042 55.1228 25.7288 55.1228Z" fill="#FFE07D"/>
<path d="M67.241 91.0181C86.2945 91.0181 101.74 75.5722 101.74 56.5187C101.74 37.4653 86.2945 22.0194 67.241 22.0194C48.1876 22.0194 32.7417 37.4653 32.7417 56.5187C32.7417 75.5722 48.1876 91.0181 67.241 91.0181Z" fill="#EAF3F9"/>
<rect y="66" width="134" height="41" rx="5" fill="#CD67CE"/>
<path d="M61.768 96C61.064 96 60.512 95.808 60.112 95.424C59.728 95.024 59.536 94.472 59.536 93.768V81.288C59.536 80.568 59.728 80.016 60.112 79.632C60.496 79.248 61.04 79.056 61.744 79.056C62.464 79.056 63.008 79.248 63.376 79.632C63.76 80.016 63.952 80.568 63.952 81.288V92.328H69.808C70.416 92.328 70.88 92.488 71.2 92.808C71.536 93.112 71.704 93.56 71.704 94.152C71.704 94.744 71.536 95.2 71.2 95.52C70.88 95.84 70.416 96 69.808 96H61.768ZM80.3599 96.264C79.1279 96.264 78.0399 96.112 77.0959 95.808C76.1519 95.488 75.3519 95.016 74.6959 94.392C74.0559 93.768 73.5679 92.992 73.2319 92.064C72.9119 91.12 72.7519 90.032 72.7519 88.8V81.096C72.7519 80.36 72.9439 79.808 73.3279 79.44C73.7119 79.056 74.2559 78.864 74.9599 78.864C75.6799 78.864 76.2239 79.056 76.5919 79.44C76.9759 79.808 77.1679 80.36 77.1679 81.096V88.848C77.1679 90.08 77.4399 91.008 77.9839 91.632C78.5279 92.256 79.3199 92.568 80.3599 92.568C81.3839 92.568 82.1679 92.256 82.7119 91.632C83.2559 91.008 83.5279 90.08 83.5279 88.848V81.096C83.5279 80.36 83.7119 79.808 84.0799 79.44C84.4639 79.056 85.0079 78.864 85.7119 78.864C86.4159 78.864 86.9519 79.056 87.3199 79.44C87.6879 79.808 87.8719 80.36 87.8719 81.096V88.8C87.8719 90.448 87.5839 91.832 87.0079 92.952C86.4479 94.056 85.6079 94.888 84.4879 95.448C83.3679 95.992 81.9919 96.264 80.3599 96.264ZM99.3691 96.264C97.4971 96.264 95.8891 95.904 94.5451 95.184C93.2011 94.464 92.1691 93.448 91.4491 92.136C90.7451 90.824 90.3931 89.288 90.3931 87.528C90.3931 86.216 90.5931 85.024 90.9931 83.952C91.4091 82.88 92.0011 81.96 92.7691 81.192C93.5531 80.424 94.4971 79.84 95.6011 79.44C96.7211 79.024 97.9771 78.816 99.3691 78.816C100.105 78.816 100.865 78.904 101.649 79.08C102.449 79.24 103.153 79.488 103.761 79.824C104.209 80.064 104.521 80.368 104.697 80.736C104.873 81.104 104.929 81.48 104.865 81.864C104.817 82.248 104.681 82.592 104.457 82.896C104.233 83.2 103.945 83.408 103.593 83.52C103.241 83.616 102.857 83.56 102.441 83.352C101.961 83.128 101.481 82.96 101.001 82.848C100.537 82.72 100.049 82.656 99.5371 82.656C98.5451 82.656 97.7131 82.848 97.0411 83.232C96.3851 83.6 95.8891 84.144 95.5531 84.864C95.2171 85.584 95.0491 86.472 95.0491 87.528C95.0491 88.584 95.2171 89.48 95.5531 90.216C95.8891 90.936 96.3851 91.488 97.0411 91.872C97.7131 92.24 98.5451 92.424 99.5371 92.424C99.9531 92.424 100.401 92.376 100.881 92.28C101.361 92.168 101.833 92 102.297 91.776C102.777 91.568 103.201 91.512 103.569 91.608C103.953 91.704 104.257 91.896 104.481 92.184C104.721 92.472 104.873 92.808 104.937 93.192C105.001 93.56 104.945 93.928 104.769 94.296C104.609 94.664 104.321 94.96 103.905 95.184C103.345 95.52 102.649 95.784 101.817 95.976C101.001 96.168 100.185 96.264 99.3691 96.264ZM109.557 96.216C108.853 96.216 108.309 96.024 107.925 95.64C107.541 95.24 107.349 94.688 107.349 93.984V81.096C107.349 80.36 107.541 79.808 107.925 79.44C108.309 79.056 108.853 78.864 109.557 78.864C110.277 78.864 110.821 79.056 111.189 79.44C111.573 79.808 111.765 80.36 111.765 81.096V86.328H111.812L117.645 79.896C117.949 79.576 118.269 79.328 118.605 79.152C118.957 78.96 119.349 78.864 119.781 78.864C120.453 78.864 120.933 79.04 121.221 79.392C121.525 79.728 121.661 80.128 121.629 80.592C121.613 81.04 121.429 81.456 121.077 81.84L115.269 88.008V86.208L121.365 93.096C121.781 93.56 121.989 94.04 121.989 94.536C121.989 95.016 121.821 95.416 121.485 95.736C121.165 96.056 120.685 96.216 120.045 96.216C119.501 96.216 119.061 96.112 118.725 95.904C118.405 95.68 118.053 95.352 117.669 94.92L111.812 88.368H111.765V93.984C111.765 94.688 111.581 95.24 111.213 95.64C110.845 96.024 110.293 96.216 109.557 96.216Z" fill="#060634"/>
<path d="M15.6 96.216C14.928 96.216 14.416 96.04 14.064 95.688C13.712 95.336 13.536 94.816 13.536 94.128V81.048C13.536 80.344 13.712 79.808 14.064 79.44C14.416 79.056 14.88 78.864 15.456 78.864C15.968 78.864 16.368 78.96 16.656 79.152C16.944 79.344 17.264 79.664 17.616 80.112L25.224 89.616H24.552V80.928C24.552 80.256 24.72 79.744 25.056 79.392C25.408 79.04 25.92 78.864 26.592 78.864C27.264 78.864 27.768 79.04 28.104 79.392C28.456 79.744 28.632 80.256 28.632 80.928V94.224C28.632 94.832 28.472 95.32 28.152 95.688C27.832 96.04 27.4 96.216 26.856 96.216C26.312 96.216 25.88 96.12 25.56 95.928C25.256 95.72 24.928 95.4 24.576 94.968L16.968 85.44H17.64V94.128C17.64 94.816 17.464 95.336 17.112 95.688C16.776 96.04 16.272 96.216 15.6 96.216ZM39.8835 96.264C38.1715 96.264 36.6675 95.904 35.3715 95.184C34.0755 94.448 33.0675 93.424 32.3475 92.112C31.6435 90.8 31.2915 89.272 31.2915 87.528C31.2915 86.216 31.4915 85.024 31.8915 83.952C32.3075 82.88 32.8915 81.96 33.6435 81.192C34.4115 80.424 35.3235 79.84 36.3795 79.44C37.4355 79.024 38.6035 78.816 39.8835 78.816C41.5955 78.816 43.0915 79.176 44.3715 79.896C45.6675 80.616 46.6755 81.632 47.3955 82.944C48.1155 84.24 48.4755 85.768 48.4755 87.528C48.4755 88.84 48.2675 90.032 47.8515 91.104C47.4515 92.176 46.8675 93.104 46.0995 93.888C45.3475 94.656 44.4435 95.248 43.3875 95.664C42.3315 96.064 41.1635 96.264 39.8835 96.264ZM39.8835 92.568C40.7315 92.568 41.4515 92.368 42.0435 91.968C42.6355 91.568 43.0915 90.992 43.4115 90.24C43.7315 89.488 43.8915 88.584 43.8915 87.528C43.8915 85.944 43.5395 84.712 42.8355 83.832C42.1315 82.952 41.1475 82.512 39.8835 82.512C39.0515 82.512 38.3315 82.712 37.7235 83.112C37.1315 83.496 36.6755 84.064 36.3555 84.816C36.0355 85.552 35.8755 86.456 35.8755 87.528C35.8755 89.112 36.2275 90.352 36.9315 91.248C37.6355 92.128 38.6195 92.568 39.8835 92.568Z" fill="#060634"/>
<path d="M129.333 66H120C122.577 66 124.667 68.1125 124.667 70.7182V102.282C124.667 104.888 122.577 107 120 107H129.333C131.911 107 134 104.888 134 102.282V70.7182C134 68.1125 131.911 66 129.333 66Z" fill="#C460C5"/>
<path d="M83.2085 56.4986H78.1837C77.5312 56.4986 77.0288 57.0111 76.9538 57.6586C76.2913 63.3734 70.794 67.6307 64.6692 66.2283C61.0594 65.4008 58.127 62.4734 57.2945 58.866C55.787 52.3288 60.7369 46.499 67.0216 46.499V50.2488C67.0216 50.7538 67.3266 51.2113 67.7941 51.4038C68.2616 51.5963 68.7966 51.4888 69.1566 51.1313L76.6563 43.6316C77.1438 43.1441 77.1438 42.3516 76.6563 41.8642L69.1566 34.3644C68.7966 34.0095 68.2616 33.902 67.7941 34.0944C67.3266 34.2869 67.0216 34.7444 67.0216 35.2494V38.9993C57.287 38.9993 49.3848 46.9865 49.5248 56.7536C49.6573 66.0383 57.472 73.858 66.7566 73.998C76.0838 74.138 83.7935 66.9382 84.4735 57.8136C84.526 57.1011 83.9235 56.4986 83.2085 56.4986Z" fill="#FFC250"/>
</svg>
