<svg width="447" height="82" viewBox="0 0 447 82" fill="none" xmlns="http://www.w3.org/2000/svg">
<g filter="url(#filter0_d_6_20)">
<path d="M30.689 54.5168H18V9.34851H43.0405C53.7721 9.34851 60.5215 15.4833 60.5215 26.2023C60.5215 36.9214 53.7721 43.1236 43.0405 43.1236H30.689V54.5168ZM41.6231 20.7417H30.689V31.7304H41.6231C46.0777 31.7304 47.9001 30.854 47.9001 26.2023C47.9001 21.6181 46.0777 20.7417 41.6231 20.7417Z" stroke="#CD67CE" stroke-width="2.41263" shape-rendering="crispEdges"/>
<path d="M75.905 54.5168H63.216V9.34851H89.6064C101.553 9.34851 107.83 14.3372 107.83 23.1687C107.83 30.3147 104.253 34.5618 95.6134 35.6405V36.3147C100.271 37.5281 101.755 39.7528 103.443 43.191L109.045 54.5168H94.3985L88.9989 43.4607C87.3791 40.0899 86.0292 39.1461 81.1021 39.1461H75.905V54.5168ZM75.905 20.7417V29.7079H89.4714C93.1836 29.7079 94.5335 29.0338 94.5335 25.1911C94.5335 21.6181 93.1836 20.7417 89.4714 20.7417H75.905Z" stroke="#CD67CE" stroke-width="2.41263" shape-rendering="crispEdges"/>
<path d="M123.758 54.5168H111.069V9.34851H123.758V54.5168Z" stroke="#CD67CE" stroke-width="2.41263" shape-rendering="crispEdges"/>
<path d="M171.142 54.5168H127.473V43.1236L151.568 21.6181V20.7417H127.878V9.34851H170.737V20.7417L145.561 42.2472V43.1236H171.142V54.5168Z" stroke="#CD67CE" stroke-width="2.41263" shape-rendering="crispEdges"/>
<path d="M215.031 54.5168H174.872V9.34851H215.031V20.7417H187.561V26.1349H214.019V37.4607H187.561V43.1236H215.031V54.5168Z" stroke="#CD67CE" stroke-width="2.41263" shape-rendering="crispEdges"/>
<path d="M251.444 53.8424H238.755V8.67415H263.796C274.527 8.67415 281.277 14.8089 281.277 25.528C281.277 36.247 274.527 42.4492 263.796 42.4492H251.444V53.8424ZM262.378 20.0673H251.444V31.056H262.378C266.833 31.056 268.655 30.1796 268.655 25.528C268.655 20.9437 266.833 20.0673 262.378 20.0673Z" stroke="#CD67CE" stroke-width="2.41263" shape-rendering="crispEdges"/>
<path d="M308.337 54.5166C292.611 54.5166 283.296 45.3481 283.296 31.2583C283.296 17.1685 292.611 8 308.337 8C324.468 8 333.647 17.1685 333.647 31.2583C333.647 45.3481 324.468 54.5166 308.337 54.5166ZM308.337 42.3818C317.516 42.3818 320.148 40.2245 320.148 31.2583C320.148 22.292 317.516 20.1348 308.337 20.1348C299.158 20.1348 296.795 22.292 296.795 31.2583C296.795 40.2245 299.158 42.3818 308.337 42.3818Z" stroke="#CD67CE" stroke-width="2.41263" shape-rendering="crispEdges"/>
<path d="M361.397 54.5166C345.67 54.5166 336.356 45.3481 336.356 31.2583C336.356 17.1685 345.67 8 361.397 8C377.528 8 386.707 17.1685 386.707 31.2583C386.707 45.3481 377.528 54.5166 361.397 54.5166ZM361.397 42.3818C370.576 42.3818 373.208 40.2245 373.208 31.2583C373.208 22.292 370.576 20.1348 361.397 20.1348C352.217 20.1348 349.855 22.292 349.855 31.2583C349.855 40.2245 352.217 42.3818 361.397 42.3818Z" stroke="#CD67CE" stroke-width="2.41263" shape-rendering="crispEdges"/>
<path d="M428.9 53.8424H390.091V8.67415H402.78V42.4492H428.9V53.8424Z" stroke="#CD67CE" stroke-width="2.41263" shape-rendering="crispEdges"/>
</g>
<defs>
<filter id="filter0_d_6_20" x="0.709276" y="0.360028" width="445.481" height="81.0977" filterUnits="userSpaceOnUse" color-interpolation-filters="sRGB">
<feFlood flood-opacity="0" result="BackgroundImageFix"/>
<feColorMatrix in="SourceAlpha" type="matrix" values="0 0 0 0 0 0 0 0 0 0 0 0 0 0 0 0 0 0 127 0" result="hardAlpha"/>
<feOffset dy="9.65051"/>
<feGaussianBlur stdDeviation="8.04209"/>
<feComposite in2="hardAlpha" operator="out"/>
<feColorMatrix type="matrix" values="0 0 0 0 0.803922 0 0 0 0 0.403922 0 0 0 0 0.807843 0 0 0 1 0"/>
<feBlend mode="normal" in2="BackgroundImageFix" result="effect1_dropShadow_6_20"/>
<feBlend mode="normal" in="SourceGraphic" in2="effect1_dropShadow_6_20" result="shape"/>
</filter>
</defs>
</svg>
